<svg xmlns="http://www.w3.org/2000/svg" viewBox="0 0 56 23"><path d="M18.77,7.045h-1.6c-0.129,0-0.207,0.104-0.207,0.181v4.937h-2.969v-4.934c0-0.129-0.052-0.181-0.181-0.181h-1.602c-0.129,0-0.207,0.077-0.207,0.181v12.56c0,0.129,0.052,0.207,0.181,0.207h1.628c0.104,0,0.181-0.078,0.181-0.207v-6h2.972v5.996c0,0.129,0.078,0.207,0.207,0.207h1.603c0.129,0,0.181-0.104,0.181-0.207v-12.56c0-0.104-0.078-0.181-0.181-0.181zm36.17,11.24c-0.025-0.077-0.052-0.104-0.129-0.104-0.129,0-0.827,0.285-1.835,0.285-1.964,0-2.92-1.887-2.92-4.885,0-2.637,0.801-5.247,2.145-5.247,0.362,0,0.802,0.104,1.499,0.75,0.078,0.077,0.129,0.103,0.207,0.103,0.077,0,0.155-0.051,0.232-0.181l0.698-1.137c0.051-0.078,0.077-0.155,0.077-0.232,0-0.104-0.104-0.182-0.259-0.259-1.06-0.543-1.783-0.646-2.403-0.646-2.43,0-4.316,2.896-4.316,7.418,0,3.902,1.81,6.151,4.394,6.151,1.086,0,2.249-0.518,2.714-0.854,0.104-0.077,0.13-0.181,0.104-0.284l-0.2-0.88zm-10.98-5.39,3.1-5.664c0.05-0.077,0.02-0.181-0.08-0.181h-1.525c-0.439,0-0.594,0.155-0.749,0.491l-2.326,4.833c-0.129,0.284-0.259,0.465-0.388,0.542v-5.684c0-0.104-0.052-0.181-0.155-0.181h-1.68c-0.077,0-0.155,0.077-0.155,0.181v12.59c0,0.077,0.052,0.181,0.155,0.181h1.68c0.104,0,0.155-0.078,0.155-0.181v-6.487c0.077,0.052,0.129,0.129,0.181,0.232l2.946,6.048c0.155,0.31,0.388,0.388,0.724,0.388h1.654c0.104,0,0.129-0.104,0.077-0.181l-3.619-6.927zm-15.16,5.479h-0.31c-0.388,0-0.491-0.155-0.491-0.466v-10.67c0-0.129-0.052-0.181-0.155-0.181h-5.17c-0.129,0-0.207,0.077-0.207,0.181v0.931c0,3.127-0.181,7.159-1.835,10.21h-0.56c-0.155,0-0.207,0.077-0.207,0.206v3.773c0,0.13,0.104,0.181,0.181,0.181h1.24c0.285,0,0.388-0.206,0.388-0.387v-2.146h5.531v2.352c0,0.104,0.077,0.181,0.181,0.181h1.318c0.155,0,0.311-0.129,0.311-0.387v-3.567c-0.001-0.13-0.079-0.207-0.208-0.207zm-2.791,0h-3.748c1.318-2.249,1.835-4.781,2.016-7.883,0.052-0.672,0.078-1.37,0.078-1.81h1.654v9.693zm8.27-11.64c-2.791,0-4.031,3.516-4.031,7.34,0,3.903,1.757,6.229,4.342,6.229,1.267,0,2.378-0.491,2.946-0.854,0.104-0.052,0.129-0.129,0.104-0.232l-0.207-0.879c-0.026-0.104-0.077-0.155-0.207-0.155-0.104,0-0.853,0.285-1.912,0.285-1.99,0-2.921-1.732-2.921-4.007v-0.611s1.009,0.121,1.603,0.121h3.773v-1.086c0-4.005-1.422-6.151-3.49-6.151zm-0.284,5.609c-0.594,0-1.524,0.104-1.524,0.104s0-0.388,0.052-0.801c0.232-2.197,0.775-3.309,1.68-3.309,0.827,0,1.344,1.138,1.473,3.128,0.026,0.413,0.026,0.878,0.026,0.878h-1.707z"/><path fill="#F00" d="M9.718,0.62h-2.947c-2.895,0-5.35,2.196-5.35,6.461,0,2.559,1.189,4.445,3.308,5.376l-3.953,7.13c-0.129,0.232,0,0.413,0.207,0.413h1.835c0.155,0,0.258-0.052,0.31-0.181l3.592-7h1.292v7.004c0,0.077,0.078,0.181,0.181,0.181h1.603c0.155,0,0.207-0.077,0.207-0.206v-18.91c0-0.181-0.101-0.258-0.282-0.258zm-1.706,10.54h-1.085c-1.706,0-3.36-1.24-3.36-4.342,0-3.23,1.551-4.549,3.127-4.549h1.318v8.891z"/></svg>
