<?xml version="1.0" encoding="utf-8"?>
<!-- Generator: Adobe Illustrator 17.1.0, SVG Export Plug-In . SVG Version: 6.00 Build 0)  -->
<!DOCTYPE svg PUBLIC "-//W3C//DTD SVG 1.1//EN" "http://www.w3.org/Graphics/SVG/1.1/DTD/svg11.dtd">
<svg version="1.1" id="Layer_1" xmlns="http://www.w3.org/2000/svg" xmlns:xlink="http://www.w3.org/1999/xlink" x="0px" y="0px"
	 viewBox="0 0 800 450" enable-background="new 0 0 800 450" xml:space="preserve">
<g>
	<path fill-rule="evenodd" clip-rule="evenodd" d="M379.9,126.1c-9.1,8.7-17.3,19.4-19.1,23.3c1.3-4.4,3.9-11.2,6.1-15.7
		C371.2,131.8,375.5,129.2,379.9,126.1L379.9,126.1z M306.7,429.5c-3.7,15.1,1.5,28.1,5.8,5.3c17.3-74.8,54.8-146.9,101.8-200.1
		c15.9-7.5,68.5-28.5,112.7-37.8c0.5,2.1,1.1,4.2,1.9,6.1c8.1,25.9,38.6,16,51.2-8.7c1.9,0.6,3.6,1.2,5.1,2c2.3,1.2,3.1,3.4,4.2,5
		c0.9-0.1,1.5-0.2,1.9-0.5c1.3-0.9-1-3.6-3.9-5.8c-1.7-1.3-3.8-2.5-6-3.4c0.6-1.3,1.1-2.7,1.5-4l0,0c-0.6,1.2-1.3,2.5-2.1,3.8
		c-11.5-4.6-28.8-4-47.8-0.9c-1-19.5,5.5-44.8,13-64.7c9-13.5,50.9-67.6,49.9-75.9l-0.2-1.3c-6.2-19-51.2,53.4-59.2,80.9
		c-8.8,12.4-17.8,20.7-20.5,20.7c-3.8-0.1-2.8-11.9,4-25.8c5-11.2,25.5-35,23.5-44.9c-0.6-2.9-3.6-3.8-6.6-2.7
		c-9.5,3.5-21.2,35.9-24.8,46.5c-7.7,12.2-11.8,17.8-19.7,25.5c-22.5,21.8,17.1-26.8-4.2-21.8c-2.1,6.3-46.7,44.3-27.5,14.4
		c2-3.7,22.4-28.6,8.1-30.3c-2.5-0.3-8.4,1.3-12.6,3c-7.1,3.1-12.7,6.5-22.6,9.9c3.7-9.1,18.5-20.7,5.2-19
		c-6.6,0.9-21.7,27.8-29,47.9c-0.8,2.3-7.9,23.3,0.5,22.6c15.8-2.6,51.9-44.8,30.3-51.2c10.6-4.2,15.3-7.1,18.7-8.2
		c8.9-2.9-0.8,10.3-7.9,23.2c-3.8,6.9-15.2,28.7-0.4,21.7c6.1-2.9,26.5-17.1,29.4-19.5c-1.8,5-8.4,19.6-0.5,22
		c6.8,2,21.7-17.6,27.5-25.3c-2.7,21.4,5.2,25,26.6,0.2c-5.8,19.5-9.8,38.1-7.9,53.4c-36,7-76.1,21.9-93.9,28.4
		c-0.1-8.4-19.1-0.6-25.5,9.7c-14.3,7.3-54,24.8-61.2,36.1c-1.2,1.9-2.2,6.2,0.8,10.2c0.4,0.5,2.8,1.9,4.6-0.8
		c9.2-13.6,38.5-29.2,47.6-33.8c-8.5,9.1-15.1,19.3-21.5,29.8C341.7,327.2,321.7,367.8,306.7,429.5L306.7,429.5z M533.5,195.6
		c18.2-3.4,34.5-4.6,45.6-1.6c-12.4,18.2-40,38.3-45.4,2.5L533.5,195.6L533.5,195.6z M678.7,258.6c-0.9,2.6-1.4,5.1-1.6,7.1
		c-0.4,3.5,1.9,5.7,2.4,3c0.2-1.3,0.9-4.1,1.3-5.8c9.4-39.3,85.6-157.2,114-162.9c5.7-0.7,9.4-17.1-7.9-5.2
		C734,131.1,694.9,216.4,678.7,258.6L678.7,258.6z M517.2,325.4L517.2,325.4c-9-7.3,8.1-42.2,19.5-52.2
		C551.1,260.7,523.9,320.8,517.2,325.4L517.2,325.4z M377.2,371.3L377.2,371.3c-11.3-13.3,20.1-66.5,30.9-63.1
		C413.5,316.6,384.4,365.4,377.2,371.3L377.2,371.3z M510,316.8L510,316.8c0.3,4.6,0.5,10.9,4.3,13.9c-5.1,5.7-8,6.1-8.6,3.1
		C504.8,329.3,507.5,319.8,510,316.8L510,316.8z M422.7,428L422.7,428c0.2-12.7,21.7-58.7,38.3-83.9c-6.1,20.3-12,43.9-26.9,70.6
		C430.9,420.4,422.6,433.2,422.7,428L422.7,428z M472.8,288.7L472.8,288.7c14.1-27.5-3.7-11.1-18.9,7.9
		c-13.9,17.5-17.1,28.9-12,27.9C455.1,322.1,466,302,472.8,288.7L472.8,288.7z M598.7,274.3L598.7,274.3c3.8-10.6,5.7-17,10.9-25.2
		c1.1-1.9,3.5-1.5,2.3,0.8C606.8,260.1,604.1,266.7,598.7,274.3L598.7,274.3z M637.3,266.2L637.3,266.2
		c12.3-15.7,23.7-28.9,32.8-44.3c1.8-3-0.5-4.2-1.9-1.8C655,236.9,646.5,249.7,637.3,266.2L637.3,266.2z M658.1,309.2L658.1,309.2
		c-1.1,4.6,1.9,5.4,3,1.3c3.3-12.6,30.2-49.9,45.6-43.3c17.7,6.3-43.2,112.5-78,109c-7.4-0.7-12.9-8.1-14.9-26.4
		c-2.5-20.7,6.9-52.5,16.6-71c27.3-36.4,61.9-75.2,45-74.1c-21,1.4-49.9,68.2-59.8,84.1c-5.9,9.4-14.1,15.2-17.9,12.6
		c-2.8-1.9-2.3-14.8,0.2-22.2c3.5-8.7,29.5-40.3,11.2-39.1c-6.6,0.4-21.7,28.8-23.2,49.7c-0.5,6.3-31.8,38.6-21.2,17.8
		c3.5-6.9,12.2-13.1,8.5-17.3c-2.3-2.6-11.6,1.5-15.9,11.9c-4.4,6.5-19.6,19.7-30.8,22c6-6.6,32-48.1,21.8-56.8
		c-9.9-8.4-25.8,14.6-29.7,23.3c-11.3-4.8-29.7,16.8-39.5,26c1-8.1,10.3-29.4,1.1-26.5c1.9-3.7,7.7-11.6,7.1-16.3
		c-1.2-10.1-21.8,2.4-28.1,7.8c-24.9,21.1-48,61.6-11,46.2c-2.8,5.9-33.3,42.5-63.5,46.9c10.9-13.3,19.2-27.1,23.4-37.5
		c2.4-6.1,16-40.7-1.9-38.7c-10.5,1.1-25.8,19-30.3,29.7c-8.6,6.7-17.6,18-22.3,30c-3.1,8.1-10.2,38.1,5.3,36.2
		c10.1-1.2,17.8-11.8,22.6-16.6c31.9,0.7,69.7-48.1,87-68.7l-5.9,26.5c-16.8,28.1-37.8,62.9-44.7,99c-1.2,6.4,1.4,8.4,9.3-0.4
		c6.3-7,13.4-18,14.3-19.6c17.1-30.3,26.2-58.7,35.8-91.8c5.5-6.4,30.3-30.8,32.7-26.8c-9.4,10.2-15.8,32-13.9,38.7
		c2.3,17.6,19.9,1.9,25.4-4.5c11.1-2.1,24.3-12.5,32.8-19.7c-0.4,3.3-1.3,12,5,11.2c8.6-0.8,21.5-18.1,26.2-24.3
		c0.3,15.2,7.1,22.2,27.8,0.2c-19.8,57.6-5,81.9,15,83.3c34.9,2.4,92.4-80.8,88.8-110.7c-1.6-13.2-14.5-10.7-26.8-1.3
		C674.9,280.6,660,301.4,658.1,309.2L658.1,309.2z M368.3,351.3L368.3,351.3c-1.3,6.8-0.5,20.4,6.7,23.4
		C349.3,408.7,359,363.9,368.3,351.3L368.3,351.3z M657.8,326.5L657.8,326.5c-1.3,5.2,5.3,3.7,7.6,0.2
		C670.3,319.4,659.6,319.3,657.8,326.5L657.8,326.5z M327.5,81.9c19-6.2,49-12,67-13.7c2.7-0.3,6-2.5,0.4-2.3
		c-22.7,0.9-42.6,4.8-62.9,9.3c2.9-4.3,41.1-52.8,40.1-49.3c-1.4,5.1-17.8,27.8-24,34.4c12.9-12.3,35.5-39.3,33.9-43.6
		c-0.8-2.2-5.1-4.3-12.1,2.2c-16.8,15.4-45.9,53.2-51.6,60.3c-14.3,3.5-37,10.1-53.6,16.9c15.4-24.3,46.5-77.3,82-91.3
		c-0.6-2.5-2.3-4.8-5.9-4.9c-24.3-0.7-77,81.6-87.9,101.5c-14.8,6.7-60.5,28.2-70.4,47.8c-1,1.9-3.3,9.4,0.3,9.7
		c1,0.1,2.2-0.5,3.7-2.4c10.9-14,38.6-34.8,59.8-43.6c-18.6,32.1-62.5,110-75.5,160.5c-2.8,11,6,15.1,11.8-9.8
		c13-43.2,47.9-106.9,75.9-156.3c8.4-5,43.4-17.1,54.4-20c-30.3,50.6-56.6,94-79.8,161.6c-2.2,6.5,0.8,21.5,6.5,4.4
		C259.9,192.4,307.5,109.1,327.5,81.9L327.5,81.9z M363.2,126.7L363.2,126.7c-3.7-0.2-3.9-4.3-0.1-8c-5.1,0.4-18.4,16.1-3.7,16.5
		c-9.7,17.8-21.2,50.7-14.4,61.2c16.4,25.3,68.1-57,62.6-76.4c-2.5-8.7-8.7-8-16.4-3.1c14.3-12.9,27.8-29.7,38.2-42.9
		c26.6-30.5,39.8-75.6-6.8-30.6C395,70,374.1,110,363.2,126.7L363.2,126.7z M373,123.5L373,123.5c-1.4-4.1,28.1-44.3,32.8-50.2
		c6.7-8.5,23-28.2,34.9-37.2c14.6-11.1,0.8,14.5-20,38.6C401.9,96.4,380.5,119.9,373,123.5L373,123.5z M365.6,185.5L365.6,185.5
		c-15.9,9.7-9.4-20.9,3.5-39.4c9.5-13.6,22.2-24.6,27.2-27.7C413.1,107.7,386.1,162.5,365.6,185.5L365.6,185.5z M293.8,207.6
		L293.8,207.6c18.4-2.2,48.7-48.4,46.7-65.1c-2.5-20.9-26.9,3.2-30.9,11.4C290.2,155.8,268.6,210.7,293.8,207.6L293.8,207.6z
		 M302.4,197.8L302.4,197.8c-1.3-18.7,15.2-44.9,26.4-55.8C342.1,129.3,316.6,188.2,302.4,197.8L302.4,197.8z M300.7,170.3
		L300.7,170.3c-2.6,7.5-6.3,20-0.3,29.7c-4.5,3-7.4,4.4-9.2,3.6C284.7,200.7,292.6,178.8,300.7,170.3L300.7,170.3z M421.6,163.8
		L421.6,163.8c-19.6,21.8,7-32.8,10.5-36C448.6,126.6,426.6,159.5,421.6,163.8L421.6,163.8z M549.5,116.7L549.5,116.7
		c9-20.4,35.9-61.6,38-59.2C590.6,60.9,552.9,112.9,549.5,116.7L549.5,116.7z M534.6,92.4L534.6,92.4c1.5-2.8,3-3.9,3.7-3.7
		c2.1,0.5-14.4,25.4-12.8,22C528.6,103.5,531,99.3,534.6,92.4L534.6,92.4z M151.6,108.6L151.6,108.6c6.1-2.1,6.3-9-0.9-6.3
		c-20.6,7.7-54.1,51.3-50.8,69.7c4.4,24.9,35.1-5.3,53.4-31.6c14.9-21.4,26.3-63-12.1-58.1C74.3,94.5-3.1,212.3,0.1,279.1
		c6.6,61.8,58.5,21.1,102.3-26.5c29.9-32.5,58.5-67.5,62.1-76.3c1.7-4-1.6-3.5-2.9-1.1C146.1,204.3,10.2,356.6,9.3,281.3
		c-0.9-77.4,88-189,136.7-195.1c27.6-3.5,10.2,36.1,3.1,47.5c-14,22.3-36.1,43-41.4,40C96.9,167.7,133.3,114.8,151.6,108.6
		L151.6,108.6z M355.2,194.4L355.2,194.4c-10.5,5-4.7-18.3-2.8-23.4c-2.5,10.3-1.3,23.3,7.8,19.9
		C358.4,192.5,356.7,193.6,355.2,194.4L355.2,194.4z"/>
</g>
</svg>
